<?xml version="1.0" standalone="no"?>
<!DOCTYPE svg PUBLIC "-//W3C//DTD SVG 20010904//EN"
 "http://www.w3.org/TR/2001/REC-SVG-20010904/DTD/svg10.dtd">
<svg version="1.0" xmlns="http://www.w3.org/2000/svg"
 width="672.000000pt" height="672.000000pt" viewBox="0 0 672.000000 672.000000"
 preserveAspectRatio="xMidYMid meet">
<metadata>
Created by potrace 1.14, written by Peter Selinger 2001-2017
</metadata>
<g transform="translate(0.000000,672.000000) scale(0.100000,-0.100000)"
fill="#000000" stroke="none">
<path d="M4136 6463 c-136 -49 -250 -126 -384 -260 -51 -51 -90 -93 -85 -93 4
0 3 -4 -3 -8 -22 -15 -129 -169 -169 -244 -28 -53 -25 -52 -112 -38 -173 28
-275 35 -501 34 -124 -1 -207 -5 -214 -12 -11 -11 12 -18 87 -27 76 -9 200
-46 273 -82 40 -20 71 -37 69 -39 -2 -2 -20 1 -41 7 -52 14 -68 17 -161 29
-78 10 -388 8 -431 -3 -12 -3 -39 -8 -60 -11 -116 -19 -350 -87 -451 -132 -29
-12 -53 -20 -53 -17 0 3 -9 -2 -20 -12 -11 -10 -20 -14 -20 -9 0 5 -4 4 -8 -1
-4 -6 -29 -24 -57 -40 -85 -49 -255 -187 -255 -207 0 -9 36 -5 46 5 17 16 194
3 194 -14 0 -5 -3 -8 -7 -7 -11 2 -88 -31 -163 -71 -90 -47 -169 -106 -272
-201 -33 -30 -64 -56 -69 -58 -5 -2 -9 -10 -9 -17 0 -7 -3 -15 -7 -17 -7 -3
-46 -46 -98 -109 -45 -54 -117 -171 -169 -276 -31 -61 -56 -113 -56 -116 0 -3
-5 -18 -11 -34 -6 -15 -10 -29 -10 -30 0 -2 -7 -19 -15 -39 -8 -20 -13 -38
-10 -41 3 -3 25 6 49 20 25 15 47 23 51 20 3 -3 6 -1 6 6 0 7 4 9 10 6 5 -3
10 -2 10 2 0 9 124 52 169 59 40 6 122 15 164 18 37 2 59 -10 41 -23 -17 -12
-89 -122 -100 -153 -3 -10 -10 -18 -15 -18 -5 0 -8 -3 -7 -7 1 -5 -15 -42 -35
-83 -76 -159 -145 -379 -163 -520 -3 -30 -8 -68 -10 -85 -6 -46 -5 -322 1
-390 6 -69 24 -211 29 -240 3 -11 5 -30 5 -42 1 -27 19 -30 27 -5 17 51 60
142 67 142 4 0 6 4 3 8 -2 4 -1 13 3 20 4 7 15 -23 25 -70 9 -46 31 -128 48
-183 17 -55 31 -104 33 -110 1 -5 7 -23 14 -40 7 -16 24 -59 38 -95 35 -90
161 -349 184 -378 10 -14 16 -28 13 -33 -3 -5 -1 -9 5 -9 5 0 16 -12 24 -27 8
-16 42 -73 76 -128 33 -54 61 -105 61 -112 0 -7 4 -13 8 -13 8 0 62 -110 97
-197 55 -138 65 -301 26 -401 -23 -57 -25 -72 -13 -72 13 0 44 33 87 94 22 31
44 56 49 56 5 0 7 3 3 6 -3 4 7 25 22 48 91 132 204 374 243 520 l13 50 85
-119 c47 -65 90 -125 95 -134 6 -9 12 -18 15 -21 31 -30 245 -325 284 -392 27
-47 46 -61 46 -35 0 7 -11 48 -25 92 -52 161 -88 317 -100 428 l-6 59 63 -43
c35 -24 68 -47 73 -51 6 -4 75 -56 155 -116 120 -88 308 -259 355 -322 6 -8
25 -33 42 -55 39 -50 132 -200 135 -217 2 -7 6 -15 10 -18 10 -8 67 -156 73
-189 3 -17 10 -42 15 -57 17 -45 20 -194 5 -273 -8 -41 -13 -77 -10 -79 4 -4
34 25 71 70 54 64 133 244 149 338 3 19 8 42 10 50 36 127 38 442 5 670 -6 41
-13 93 -16 114 -3 22 -8 45 -11 50 -6 9 48 -36 93 -79 6 -5 52 -43 103 -84 50
-41 91 -78 91 -83 0 -4 5 -8 11 -8 11 0 45 -30 193 -172 50 -49 87 -88 84 -88
-4 0 12 -19 35 -43 23 -24 49 -52 57 -63 58 -76 70 -94 70 -102 0 -6 4 -12 9
-14 20 -7 105 -174 140 -275 33 -92 50 -207 48 -315 -2 -54 0 -98 3 -98 8 0
43 59 67 110 34 75 80 220 102 325 28 133 31 152 37 210 3 28 7 56 10 63 8 25
18 227 18 352 0 226 -25 399 -78 545 -14 38 -24 71 -22 72 4 5 89 -57 104 -76
7 -9 14 -14 16 -11 2 3 27 -16 55 -43 29 -26 50 -47 47 -47 -3 0 7 -12 22 -28
59 -57 184 -286 207 -377 1 -5 5 -17 8 -25 3 -8 12 -35 18 -60 17 -59 16 -58
18 -70 0 -5 6 -10 12 -10 7 0 9 39 5 123 -11 244 -35 404 -87 581 -12 38 -22
76 -24 85 -6 28 -84 213 -96 227 -6 8 -8 14 -3 14 5 0 5 4 -1 8 -5 4 -18 22
-27 40 -44 80 -54 97 -65 109 -6 7 -21 29 -34 50 -13 21 -28 43 -34 49 -5 7
-37 43 -70 81 -51 58 -123 126 -212 200 -12 10 -30 25 -41 34 -10 9 -23 18
-28 20 -23 10 -160 94 -165 102 -3 5 -9 8 -13 7 -13 -3 -173 84 -271 148 -98
64 -210 166 -199 183 3 5 0 9 -5 9 -15 0 -76 126 -90 187 -26 108 -12 270 30
354 17 33 49 69 49 55 0 -4 7 0 16 8 15 16 38 20 79 16 30 -3 222 -69 295
-102 161 -72 180 -82 180 -90 0 -4 3 -7 8 -6 14 4 52 -14 52 -24 0 -6 3 -9 6
-5 4 3 27 -5 53 -20 25 -14 68 -38 94 -53 26 -14 55 -33 65 -41 9 -8 22 -16
27 -18 33 -11 41 -15 45 -21 3 -4 34 -19 70 -33 56 -22 77 -26 150 -23 47 2
95 6 107 9 34 9 115 46 133 61 8 8 47 16 85 19 109 10 180 38 255 104 26 24
60 43 82 47 20 4 47 15 60 25 l23 19 -35 73 c-35 72 -93 159 -143 212 -14 15
-23 27 -19 27 4 0 -2 6 -14 13 -58 34 -86 57 -121 97 -50 59 -203 219 -227
239 -11 9 -59 54 -107 101 l-87 85 -5 75 c-3 41 -14 124 -23 183 -16 101 -20
113 -62 170 -129 175 -391 392 -626 517 -109 59 -98 33 -96 225 1 61 3 128 5
150 2 22 6 72 9 111 6 79 31 238 46 297 20 75 26 102 25 112 -6 43 -64 86
-123 90 -21 1 -68 -9 -106 -22z"/>
</g>
</svg>
