<svg width="16" height="16" viewBox="0 0 16 16" fill="none" xmlns="http://www.w3.org/2000/svg">
<path d="M13.3187 2.834C13.4127 2.82533 13.5 2.90067 13.5 3.004V9.71733C13.1002 9.42788 12.6189 9.27266 12.1253 9.274C10.8073 9.274 9.75 9.688 9.75 11.0073C9.75 12.3267 10.8073 12.7407 12.1253 12.7407C13.4427 12.7407 14.5 12.326 14.5 11.0073V3.004C14.5 2.318 13.9133 1.77533 13.2267 1.838L6.31 2.47533C6.01983 2.50243 5.75025 2.63697 5.55415 2.85256C5.35804 3.06815 5.24957 3.34923 5.25 3.64067V10.4767C4.85012 10.1875 4.36884 10.0325 3.87533 10.034C2.55733 10.034 1.5 10.448 1.5 11.7673C1.5 13.086 2.55733 13.5 3.87533 13.5C5.19267 13.5 6.25 13.0867 6.25 11.7667V3.64133C6.25 3.55133 6.318 3.47933 6.402 3.472L13.3187 2.834Z" fill="white"/>
</svg>
