<svg width="16" height="16" viewBox="0 0 16 16" fill="none" xmlns="http://www.w3.org/2000/svg">
<path d="M2.66641 6.93333V6.4H2.13307V6.93333H2.66641ZM6.93307 6.93333V6.4H6.39974V6.93333H6.93307ZM6.93307 11.2H6.39974V11.7333H6.93307V11.2ZM14.3997 3.73333H14.9331V3.51253L14.7773 3.35573L14.3997 3.73333ZM11.1997 0.533333L11.5773 0.155733L11.4205 0H11.1997V0.533333ZM2.66641 7.46667H3.73307V6.4H2.66641V7.46667ZM3.19974 11.7333V9.06667H2.13307V11.7333H3.19974ZM3.19974 9.06667V6.93333H2.13307V9.06667H3.19974ZM3.73307 8.53333H2.66641V9.6H3.73307V8.53333ZM4.26641 8C4.26641 8.14145 4.21022 8.2771 4.1102 8.37712C4.01018 8.47714 3.87452 8.53333 3.73307 8.53333V9.6C4.15742 9.6 4.56439 9.43143 4.86444 9.13137C5.1645 8.83131 5.33307 8.42435 5.33307 8H4.26641ZM3.73307 7.46667C3.87452 7.46667 4.01018 7.52286 4.1102 7.62288C4.21022 7.7229 4.26641 7.85855 4.26641 8H5.33307C5.33307 7.57565 5.1645 7.16869 4.86444 6.86863C4.56439 6.56857 4.15742 6.4 3.73307 6.4V7.46667ZM6.39974 6.93333V11.2H7.46641V6.93333H6.39974ZM6.93307 11.7333H7.99974V10.6667H6.93307V11.7333ZM9.59974 10.1333V8H8.53307V10.1333H9.59974ZM7.99974 6.4H6.93307V7.46667H7.99974V6.4ZM9.59974 8C9.59974 7.57565 9.43117 7.16869 9.13111 6.86863C8.83105 6.56857 8.42409 6.4 7.99974 6.4V7.46667C8.14119 7.46667 8.27684 7.52286 8.37686 7.62288C8.47688 7.7229 8.53307 7.85855 8.53307 8H9.59974ZM7.99974 11.7333C8.42409 11.7333 8.83105 11.5648 9.13111 11.2647C9.43117 10.9646 9.59974 10.5577 9.59974 10.1333H8.53307C8.53307 10.2748 8.47688 10.4104 8.37686 10.5105C8.27684 10.6105 8.14119 10.6667 7.99974 10.6667V11.7333ZM10.6664 6.4V11.7333H11.7331V6.4H10.6664ZM11.1997 7.46667H13.8664V6.4H11.1997V7.46667ZM11.1997 9.6H12.7997V8.53333H11.1997V9.6ZM2.13307 5.33333V1.6H1.06641V5.33333H2.13307ZM13.8664 3.73333V5.33333H14.9331V3.73333H13.8664ZM2.66641 1.06667H11.1997V0H2.66641V1.06667ZM10.8221 0.910933L14.0221 4.11093L14.7773 3.35573L11.5773 0.155733L10.8221 0.910933ZM2.13307 1.6C2.13307 1.45855 2.18926 1.3229 2.28928 1.22288C2.3893 1.12286 2.52496 1.06667 2.66641 1.06667V0C2.24206 0 1.83509 0.168571 1.53504 0.468629C1.23498 0.768687 1.06641 1.17565 1.06641 1.6H2.13307ZM1.06641 12.8V14.4H2.13307V12.8H1.06641ZM2.66641 16H13.3331V14.9333H2.66641V16ZM14.9331 14.4V12.8H13.8664V14.4H14.9331ZM13.3331 16C13.7574 16 14.1644 15.8314 14.4644 15.5314C14.7645 15.2313 14.9331 14.8243 14.9331 14.4H13.8664C13.8664 14.5414 13.8102 14.6771 13.7102 14.7771C13.6102 14.8771 13.4745 14.9333 13.3331 14.9333V16ZM1.06641 14.4C1.06641 14.8243 1.23498 15.2313 1.53504 15.5314C1.83509 15.8314 2.24206 16 2.66641 16V14.9333C2.52496 14.9333 2.3893 14.8771 2.28928 14.7771C2.18926 14.6771 2.13307 14.5414 2.13307 14.4H1.06641Z" fill="white"/>
</svg>
