<?xml version="1.0" encoding="utf-8"?>
<!-- Generator: Adobe Illustrator 23.1.0, SVG Export Plug-In . SVG Version: 6.00 Build 0)  -->
<svg version="1.1" id="Layer_1" xmlns="http://www.w3.org/2000/svg" xmlns:xlink="http://www.w3.org/1999/xlink" x="0px" y="0px"
	 viewBox="0 0 800 300" style="enable-background:new 0 0 800 300;" xml:space="preserve">
<style type="text/css">
	.st0{fill:#FFFFFF;}
	.st1{fill:none;stroke:#FFFFFF;stroke-width:2;stroke-miterlimit:10;}
	.st2{fill:none;stroke:#FFFFFF;stroke-miterlimit:10;}
	.st3{fill:none;stroke:#FFFFFF;stroke-width:0.5;stroke-miterlimit:10;}
</style>
<g>
	<path class="st0" d="M248.5,166.5v-69h21.2c6.1,0,11.5,1.4,16.3,4.1c4.8,2.7,8.5,6.6,11.2,11.7c2.7,5,4,10.8,4,17.2v3.2
		c0,6.4-1.3,12.1-4,17.1c-2.6,5-6.4,8.9-11.2,11.6c-4.8,2.8-10.2,4.1-16.3,4.2H248.5z M262.8,109v46.1h6.9c5.6,0,9.8-1.8,12.8-5.5
		c2.9-3.6,4.4-8.8,4.5-15.6v-3.7c0-7-1.5-12.3-4.4-16c-2.9-3.6-7.2-5.4-12.8-5.4H262.8z"/>
	<path class="st0" d="M334.8,141.2h-11.3v25.3h-14.2v-69h25.7c8.2,0,14.4,1.8,18.9,5.5c4.4,3.6,6.6,8.8,6.6,15.4
		c0,4.7-1,8.6-3.1,11.8c-2,3.1-5.1,5.7-9.3,7.5l14.9,28.2v0.7h-15.3L334.8,141.2z M323.4,129.7h11.5c3.6,0,6.3-0.9,8.3-2.7
		c2-1.8,2.9-4.3,2.9-7.5c0-3.3-0.9-5.8-2.8-7.7c-1.8-1.9-4.7-2.8-8.5-2.8h-11.4V129.7z"/>
	<path class="st0" d="M407.8,152.3h-24.9l-4.7,14.2h-15.1l25.7-69h13.2l25.8,69h-15.1L407.8,152.3z M386.7,140.8h17.3l-8.7-25.8
		L386.7,140.8z"/>
	<path class="st0" d="M483.6,146.6l9.3-49.1h14.2l-15.3,69h-14.3l-11.2-46.2L455,166.5h-14.3l-15.3-69h14.2l9.3,49l11.4-49h12
		L483.6,146.6z"/>
	<path class="st0" d="M515.7,98.5h22.5c18.6,0,31.6,13,31.6,33.4c0,20.3-12.6,34.6-31.7,34.6h-22.4V98.5z M521,161.7h16.4
		c18,0,26.8-12.6,26.8-29.4c0-15-8-28.8-26.8-28.8H521V161.7z"/>
	<path class="st0" d="M639.4,132c0,18.6-9.9,35.4-30.9,35.4c-19.1,0-30.3-15.4-30.3-35c0-19.2,10.8-35,31-35
		C627.9,97.6,639.4,112.2,639.4,132z M583.9,132.2c0,15.6,8.6,30.4,25,30.4c17.6,0,25-14.4,25-30.5c0-15.8-8.4-29.7-24.8-29.7
		C591.6,102.4,583.9,116.9,583.9,132.2z"/>
	<path class="st0" d="M662.7,148c0,15.2-6.7,19.5-15.7,19.5c-2.9,0-4.2-0.3-5.8-0.6v-4.8c1.4,0.3,3.8,0.5,6,0.5
		c9.1,0,10.3-7.1,10.3-14.8V98.5h5.2V148z"/>
	<path class="st0" d="M736.1,132c0,18.6-9.9,35.4-30.9,35.4c-19.1,0-30.3-15.4-30.3-35c0-19.2,10.8-35,31-35
		C724.5,97.6,736.1,112.2,736.1,132z M680.5,132.2c0,15.6,8.6,30.4,25,30.4c17.6,0,25-14.4,25-30.5c0-15.8-8.4-29.7-24.8-29.7
		C688.2,102.4,680.5,116.9,680.5,132.2z"/>
</g>
<g>
	<path class="st1" d="M97,95.7c-4.8,0-8.5,0-13.6,0c11.3-7.3,18.1-16.2,20-29.1c0.7,1.9,1.4,3.8,2.2,6.1c17.6,0,35.5,0,53.4,0
		c0.5-2.2,1-4.2,1.5-6.1c0.5-0.1,0.9-0.2,1.4-0.2c1.2,12.6,7.2,22,18.9,29c-4.8,0-8.6,0-13.1,0c0,8.5,0,16.3,0,24.5
		c-23.9,0-47,0-70.8,0C97,112.1,97,104.2,97,95.7z M106.5,102.1c0,4.5,0,8.3,0,12.7c2.4,0,4.3,0,6.3,0c11.7,0,11.7,0,10.1-11.7
		c0-0.3-0.4-0.6-0.7-1C117.1,102.1,111.9,102.1,106.5,102.1z M158,114.7c0-4.7,0-8.5,0-12.5c-5.6,0-10.9,0-16.8,0
		c0,3.4-0.3,6.4,0.1,9.4c0.1,1.1,1.7,2.9,2.7,3C148.6,114.9,153.2,114.7,158,114.7z"/>
	<path class="st1" d="M79.4,151.9c35.5,0,70.2,0,105.6,0c0,9-0.1,17.7,0,26.5c0,2.5-1.5,6.1,3.3,6.4c0.3,0,0.9,1.6,0.8,2.3
		c-0.1,0.6-1,1.4-1.7,1.6c-1.2,0.3-2.5,0.1-3.8,0.1c-34.3,0-68.6,0-102.9,0c-1.3,0-2.6,0.1-3.8-0.1c-0.7-0.2-1.6-1-1.7-1.6
		c-0.1-0.7,0.5-2.3,0.8-2.3c4.9-0.3,3.2-4,3.3-6.4C79.5,169.7,79.4,161.1,79.4,151.9z M88.1,175.8c6.2,0,11.6,0,16.9,0
		c9.4,0,9.3,0,8.9-9.6c-0.1-3.2-1.4-4-4.3-3.9c-5.8,0.1-11.6-0.1-17.3,0.2c-1.5,0.1-3.9,1.6-4.1,2.7
		C87.7,168.5,88.1,171.9,88.1,175.8z M175.9,175.8c0.1-3.1,0.2-5.8,0.4-8.4c0.4-4.1-1.4-5.4-5.4-5.1c-4.9,0.3-9.8,0.4-14.6,0
		c-4.9-0.4-6.7,1.4-5.9,6.1c0.2,1.4-0.4,3.1,0.2,4.3c0.6,1.3,2.1,3,3.2,3C161,176,168.2,175.8,175.9,175.8z M140.1,188.4
		c0-4.2,0.3-19.3-0.1-23.2c-0.5-4.3-3.4-6.8-7.7-6.9c-4.3-0.1-7.4,2.3-7.9,6.5c-0.5,4-0.1,19.3-0.1,23.5
		C129.8,188.4,134.7,188.4,140.1,188.4z"/>
	<path class="st1" d="M190.6,145.8c-39,0-77.9,0-118.7,0c9.6-4.5,15.3-10.9,19.7-18.6c0.5-0.9,2.4-1.3,3.7-1.3
		c24.6-0.1,49.1-0.1,73.7,0.1c1.5,0,3.6,1.3,4.5,2.6C178,135.6,183.1,141.6,190.6,145.8z"/>
</g>
<line class="st2" x1="61.7" y1="146.7" x2="200.5" y2="146.7"/>
<line class="st3" x1="132.3" y1="63.5" x2="132.3" y2="198.4"/>
<line class="st3" x1="97.5" y1="92.7" x2="97.5" y2="198.4"/>
<line class="st3" x1="167.9" y1="92.7" x2="167.9" y2="198.4"/>
<line class="st3" x1="248.8" y1="86.5" x2="248.8" y2="174.8"/>
<line class="st3" x1="736.6" y1="86.5" x2="736.6" y2="174.8"/>
<line class="st3" x1="515.1" y1="86.5" x2="515.1" y2="174.8"/>
<line class="st3" x1="507.6" y1="86.5" x2="507.6" y2="174.8"/>
<line class="st2" x1="51.7" y1="190" x2="211.7" y2="190"/>
<line class="st3" x1="67.9" y1="184.5" x2="196.7" y2="184.5"/>
<line class="st2" x1="87.5" y1="127.2" x2="178.3" y2="127.2"/>
<line class="st2" x1="88.8" y1="120.7" x2="175.8" y2="120.7"/>
<line class="st2" x1="76.3" y1="95.7" x2="188.3" y2="95.7"/>
<line class="st2" x1="93.4" y1="72.8" x2="170.3" y2="72.8"/>
<line class="st3" x1="92.1" y1="92.7" x2="174" y2="92.7"/>
<line class="st3" x1="92.1" y1="90.2" x2="174" y2="90.2"/>
<line class="st3" x1="92.1" y1="87.7" x2="174" y2="87.7"/>
<line class="st3" x1="92.1" y1="85.2" x2="170.3" y2="85.2"/>
<line class="st3" x1="97.1" y1="82.7" x2="169" y2="82.7"/>
<line class="st3" x1="95.9" y1="80.2" x2="165.3" y2="80.2"/>
<line class="st3" x1="98.4" y1="77.8" x2="165.3" y2="77.8"/>
<line class="st3" x1="99.6" y1="75.3" x2="165.3" y2="75.3"/>
<line class="st3" x1="76.2" y1="143.7" x2="186.9" y2="143.7"/>
<line class="st3" x1="79.9" y1="141.2" x2="183.2" y2="141.2"/>
<line class="st3" x1="82.4" y1="138.7" x2="182" y2="138.7"/>
<line class="st3" x1="83.7" y1="136.2" x2="177.4" y2="136.2"/>
<line class="st3" x1="88.5" y1="133.8" x2="175.9" y2="133.8"/>
<line class="st3" x1="87" y1="131.3" x2="171.4" y2="131.3"/>
<line class="st3" x1="90" y1="128.8" x2="171.4" y2="128.8"/>
<line class="st3" x1="91.5" y1="126.3" x2="171.4" y2="126.3"/>
<line class="st3" x1="244.7" y1="166.2" x2="747.3" y2="166.2"/>
<line class="st3" x1="245.4" y1="97" x2="748" y2="97"/>
<line class="st3" x1="245.4" y1="133" x2="748" y2="133"/>
<circle class="st3" cx="131.9" cy="138" r="94.9"/>
</svg>
