<svg width="300" height="100" viewBox="0 0 300 100" fill="none" xmlns="http://www.w3.org/2000/svg">
<path d="M16.8954 51.7538C16.847 51.778 16.8228 51.8022 16.8228 51.8264C16.8228 51.8506 16.847 51.8748 16.8954 51.899C18.2019 52.4554 19.2059 53.2659 19.9076 54.3305C20.6334 55.395 20.9963 56.6652 20.9963 58.141C20.9963 60.2701 20.3189 61.9516 18.964 63.1855C17.6333 64.3952 15.8672 65 13.6655 65H5.06458C4.82264 65 4.70167 64.879 4.70167 64.6371V39.9593C4.70167 39.7173 4.82264 39.5964 5.06458 39.5964H13.4115C15.6615 39.5964 17.4398 40.177 18.7463 41.3383C20.0527 42.4996 20.706 44.1085 20.706 46.165C20.706 47.5199 20.3793 48.6691 19.7261 49.6127C19.0729 50.5562 18.1293 51.2699 16.8954 51.7538ZM6.77025 41.302C6.67348 41.302 6.62509 41.3504 6.62509 41.4472V50.9554C6.62509 51.0522 6.67348 51.1006 6.77025 51.1006H13.4115C15.0567 51.1006 16.3632 50.6651 17.3309 49.7941C18.3229 48.8989 18.8188 47.7255 18.8188 46.2739C18.8188 44.7739 18.3229 43.5763 17.3309 42.6811C16.3632 41.7617 15.0567 41.302 13.4115 41.302H6.77025ZM13.6655 63.258C15.3107 63.258 16.6172 62.7863 17.5849 61.8427C18.5769 60.8749 19.0729 59.6048 19.0729 58.0321C19.0729 56.4112 18.5648 55.1289 17.5487 54.1853C16.5325 53.2176 15.1776 52.7337 13.4841 52.7337H6.77025C6.67348 52.7337 6.62509 52.7821 6.62509 52.8788V63.1129C6.62509 63.2096 6.67348 63.258 6.77025 63.258H13.6655ZM27.8882 65C27.6462 65 27.5253 64.879 27.5253 64.6371V39.9593C27.5253 39.7173 27.6462 39.5964 27.8882 39.5964H29.0858C29.3277 39.5964 29.4487 39.7173 29.4487 39.9593V63.1492C29.4487 63.2459 29.4971 63.2943 29.5938 63.2943H42.6223C42.8642 63.2943 42.9852 63.4153 42.9852 63.6572V64.6371C42.9852 64.879 42.8642 65 42.6223 65H27.8882ZM64.6948 65C64.4771 65 64.3319 64.9032 64.2593 64.7097L62.6988 59.883C62.6746 59.8104 62.6262 59.7741 62.5536 59.7741H51.2309C51.1583 59.7741 51.1099 59.8104 51.0857 59.883L49.5615 64.7097C49.4889 64.9032 49.3437 65 49.126 65H47.8558C47.5897 65 47.4929 64.8669 47.5655 64.6008L55.6221 39.8867C55.6947 39.6931 55.8398 39.5964 56.0576 39.5964H57.6907C57.9084 39.5964 58.0536 39.6931 58.1261 39.8867L66.219 64.6008L66.2553 64.746C66.2553 64.9153 66.1464 65 65.9287 65H64.6948ZM51.6664 57.9959C51.6422 58.0442 51.6422 58.0926 51.6664 58.141C51.7147 58.1652 51.7631 58.1773 51.8115 58.1773H61.973C62.0214 58.1773 62.0577 58.1652 62.0819 58.141C62.1302 58.0926 62.1423 58.0442 62.1181 57.9959L57.0011 42.2093C56.9769 42.1609 56.9406 42.1367 56.8923 42.1367C56.8439 42.1367 56.8076 42.1609 56.7834 42.2093L51.6664 57.9959ZM71.657 65C71.415 65 71.2941 64.879 71.2941 64.6371V39.9593C71.2941 39.7173 71.415 39.5964 71.657 39.5964H72.8546C73.0965 39.5964 73.2175 39.7173 73.2175 39.9593V52.77C73.2175 52.8184 73.2417 52.8546 73.2901 52.8788C73.3385 52.903 73.3748 52.8909 73.3989 52.8425L85.6653 39.7778C85.7862 39.6568 85.9314 39.5964 86.1008 39.5964H87.4435C87.5887 39.5964 87.6855 39.6448 87.7339 39.7415C87.7822 39.8141 87.758 39.9109 87.6613 40.0319L78.5885 50.0119C78.5402 50.0602 78.5402 50.1328 78.5885 50.2296L88.496 64.5645L88.5685 64.746C88.5685 64.9153 88.4597 65 88.2419 65H86.8266C86.633 65 86.4879 64.9274 86.3911 64.7823L77.2821 51.6087C77.2579 51.5603 77.2216 51.5361 77.1732 51.5361C77.1248 51.5361 77.0885 51.5482 77.0643 51.5724L73.2901 55.4555C73.2417 55.5039 73.2175 55.5644 73.2175 55.6369V64.6371C73.2175 64.879 73.0965 65 72.8546 65H71.657ZM109.524 40.9391C109.524 41.1811 109.403 41.302 109.161 41.302H95.4065C95.3098 41.302 95.2614 41.3504 95.2614 41.4472V51.2457C95.2614 51.3425 95.3098 51.3909 95.4065 51.3909H105.169C105.411 51.3909 105.532 51.5119 105.532 51.7538V52.7337C105.532 52.9756 105.411 53.0966 105.169 53.0966H95.4065C95.3098 53.0966 95.2614 53.145 95.2614 53.2417V63.1492C95.2614 63.2459 95.3098 63.2943 95.4065 63.2943H109.161C109.403 63.2943 109.524 63.4153 109.524 63.6572V64.6371C109.524 64.879 109.403 65 109.161 65H93.7009C93.4589 65 93.338 64.879 93.338 64.6371V39.9593C93.338 39.7173 93.4589 39.5964 93.7009 39.5964H109.161C109.403 39.5964 109.524 39.7173 109.524 39.9593V40.9391ZM127.616 65C127.422 65 127.289 64.9032 127.216 64.7097L120.14 39.9956L120.103 39.8867C120.103 39.6931 120.224 39.5964 120.466 39.5964H121.7C121.894 39.5964 122.027 39.6931 122.099 39.8867L128.124 61.0443C128.148 61.0927 128.172 61.1169 128.196 61.1169C128.245 61.1169 128.281 61.0927 128.305 61.0443L133.894 39.923C133.942 39.7052 134.075 39.5964 134.293 39.5964H135.563C135.781 39.5964 135.914 39.7052 135.962 39.923L141.733 61.0443C141.757 61.0927 141.781 61.1169 141.805 61.1169C141.854 61.1169 141.89 61.0927 141.914 61.0443L148.011 39.8867C148.084 39.6931 148.217 39.5964 148.41 39.5964H149.572C149.693 39.5964 149.777 39.6327 149.826 39.7052C149.898 39.7778 149.922 39.8746 149.898 39.9956L142.821 64.7097C142.749 64.9032 142.616 65 142.422 65H141.152C140.934 65 140.801 64.8911 140.753 64.6734L135.055 43.1529C135.031 43.1045 134.995 43.0803 134.946 43.0803C134.922 43.0803 134.898 43.1045 134.874 43.1529L129.212 64.6734C129.164 64.8911 129.031 65 128.813 65H127.616ZM155.048 65C154.806 65 154.685 64.879 154.685 64.6371V39.9593C154.685 39.7173 154.806 39.5964 155.048 39.5964H156.246C156.488 39.5964 156.609 39.7173 156.609 39.9593V64.6371C156.609 64.879 156.488 65 156.246 65H155.048ZM164.404 65C164.162 65 164.041 64.879 164.041 64.6371V39.9593C164.041 39.7173 164.162 39.5964 164.404 39.5964H165.602C165.844 39.5964 165.965 39.7173 165.965 39.9593V63.1492C165.965 63.2459 166.013 63.2943 166.11 63.2943H179.138C179.38 63.2943 179.501 63.4153 179.501 63.6572V64.6371C179.501 64.879 179.38 65 179.138 65H164.404ZM184.995 65C184.753 65 184.632 64.879 184.632 64.6371V39.9593C184.632 39.7173 184.753 39.5964 184.995 39.5964H186.193C186.435 39.5964 186.556 39.7173 186.556 39.9593V63.1492C186.556 63.2459 186.604 63.2943 186.701 63.2943H199.729C199.971 63.2943 200.092 63.4153 200.092 63.6572V64.6371C200.092 64.879 199.971 65 199.729 65H184.995ZM205.586 65C205.344 65 205.223 64.879 205.223 64.6371V39.9593C205.223 39.7173 205.344 39.5964 205.586 39.5964H206.784C207.026 39.5964 207.147 39.7173 207.147 39.9593V64.6371C207.147 64.879 207.026 65 206.784 65H205.586ZM230.729 40.9391C230.729 41.1811 230.608 41.302 230.366 41.302H216.648C216.551 41.302 216.503 41.3504 216.503 41.4472V51.2457C216.503 51.3425 216.551 51.3909 216.648 51.3909H226.374C226.616 51.3909 226.737 51.5119 226.737 51.7538V52.7337C226.737 52.9756 226.616 53.0966 226.374 53.0966H216.648C216.551 53.0966 216.503 53.145 216.503 53.2417V64.6371C216.503 64.879 216.382 65 216.14 65H214.942C214.7 65 214.579 64.879 214.579 64.6371V39.9593C214.579 39.7173 214.7 39.5964 214.942 39.5964H230.366C230.608 39.5964 230.729 39.7173 230.729 39.9593V40.9391ZM242.683 65.2903C241.014 65.2903 239.538 64.9516 238.256 64.2742C236.998 63.5726 236.018 62.6048 235.316 61.3709C234.639 60.1128 234.3 58.6733 234.3 57.0523V47.5441C234.3 45.9231 234.639 44.4956 235.316 43.2617C236.018 42.0037 236.998 41.0359 238.256 40.3585C239.538 39.6568 241.014 39.306 242.683 39.306C244.353 39.306 245.828 39.6568 247.111 40.3585C248.393 41.0359 249.385 42.0037 250.087 43.2617C250.788 44.4956 251.139 45.9231 251.139 47.5441V57.0523C251.139 58.6733 250.788 60.1128 250.087 61.3709C249.385 62.6048 248.393 63.5726 247.111 64.2742C245.828 64.9516 244.353 65.2903 242.683 65.2903ZM242.683 63.6209C244.643 63.6209 246.216 63.0282 247.401 61.8427C248.611 60.6572 249.216 59.0846 249.216 57.1249V47.5078C249.216 45.5723 248.611 44.0118 247.401 42.8263C246.216 41.6166 244.643 41.0117 242.683 41.0117C240.748 41.0117 239.187 41.6166 238.002 42.8263C236.816 44.0118 236.223 45.5723 236.223 47.5078V57.1249C236.223 59.0846 236.816 60.6572 238.002 61.8427C239.187 63.0282 240.748 63.6209 242.683 63.6209ZM272.771 65C272.553 65 272.408 64.9153 272.335 64.746L266.783 53.2055C266.759 53.1329 266.71 53.0966 266.638 53.0966H259.779C259.682 53.0966 259.634 53.145 259.634 53.2417V64.6371C259.634 64.879 259.513 65 259.271 65H258.073C257.831 65 257.71 64.879 257.71 64.6371V39.9593C257.71 39.7173 257.831 39.5964 258.073 39.5964H267.218C269.251 39.5964 270.884 40.2254 272.118 41.4835C273.376 42.7416 274.005 44.3868 274.005 46.4191C274.005 48.1368 273.533 49.5885 272.59 50.774C271.646 51.9353 270.376 52.6611 268.779 52.9514C268.658 52.9998 268.622 53.0603 268.67 53.1329L274.223 64.5645C274.247 64.6129 274.259 64.6734 274.259 64.746C274.259 64.9153 274.162 65 273.969 65H272.771ZM259.779 41.302C259.682 41.302 259.634 41.3504 259.634 41.4472V51.3546C259.634 51.4514 259.682 51.4998 259.779 51.4998H267.037C268.537 51.4998 269.747 51.028 270.666 50.0844C271.61 49.1409 272.081 47.9191 272.081 46.4191C272.081 44.8948 271.61 43.6609 270.666 42.7174C269.747 41.7738 268.537 41.302 267.037 41.302H259.779ZM280.294 65C280.052 65 279.931 64.879 279.931 64.6371V39.9593C279.931 39.7173 280.052 39.5964 280.294 39.5964H288.714C291.036 39.5964 292.875 40.2133 294.23 41.4472C295.585 42.6569 296.262 44.3142 296.262 46.4191V58.1773C296.262 60.2822 295.585 61.9516 294.23 63.1855C292.875 64.3952 291.036 65 288.714 65H280.294ZM281.855 63.1492C281.855 63.2459 281.903 63.2943 282 63.2943H288.823C290.516 63.2943 291.847 62.8225 292.815 61.879C293.807 60.9112 294.315 59.6048 294.339 57.9596V46.6368C294.339 44.9916 293.843 43.6972 292.851 42.7537C291.883 41.7859 290.54 41.302 288.823 41.302H282C281.903 41.302 281.855 41.3504 281.855 41.4472V63.1492Z" fill="white"/>
</svg>
