<svg width="840" height="221" viewBox="0 0 840 221" fill="none" xmlns="http://www.w3.org/2000/svg">
<path d="M255.013 91.0179V66.3759C255.013 64.4884 253.467 62.9575 251.545 62.9575H140.199C138.293 62.9575 136.731 64.4884 136.731 66.3759V91.0179C136.731 92.9054 135.185 94.4363 133.263 94.4363H117.441C115.519 94.4363 113.973 92.9054 113.973 91.0179V66.3759C113.973 64.4884 112.426 62.9575 110.505 62.9575H3.73737C1.8158 62.9575 0.269531 64.4884 0.269531 66.3759V122.497C0.269531 124.384 1.8158 125.915 3.73737 125.915H33.2065C35.1281 125.915 36.6744 127.446 36.6744 129.333V153.975C36.6744 155.863 38.2206 157.394 40.1422 157.394H151.488C153.41 157.394 154.956 155.863 154.956 153.975V129.333C154.956 127.446 156.503 125.915 158.424 125.915H174.247C176.169 125.915 177.715 127.446 177.715 129.333V153.975C177.715 155.863 179.261 157.394 181.183 157.394H287.98C289.902 157.394 291.448 155.863 291.448 153.975V97.8695C291.448 95.982 289.902 94.4511 287.98 94.4511H258.511C256.59 94.4511 255.043 92.9203 255.043 91.0328L255.013 91.0179Z" fill="#CCD667"/>
<path d="M414.152 156H391.112L364.744 117.216L353.352 130.016V156H333.64V64.48H353.352V106.336L390.088 64.48H411.464L376.52 103.904L414.152 156ZM443.943 158.048C437.031 158.048 430.973 156.597 425.767 153.696C420.647 150.795 416.722 146.741 413.991 141.536C411.261 136.245 409.895 130.187 409.895 123.36C409.895 116.533 411.261 110.475 413.991 105.184C416.807 99.8933 420.775 95.7973 425.895 92.896C431.101 89.9093 437.202 88.416 444.199 88.416C451.111 88.416 457.127 89.8667 462.247 92.768C467.453 95.6693 471.421 99.7653 474.151 105.056C476.882 110.261 478.247 116.277 478.247 123.104C478.247 129.931 476.839 135.989 474.023 141.28C471.293 146.571 467.325 150.709 462.119 153.696C456.999 156.597 450.941 158.048 443.943 158.048ZM444.071 144.608C449.362 144.608 453.373 142.731 456.103 138.976C458.919 135.136 460.327 129.888 460.327 123.232C460.327 116.576 458.919 111.371 456.103 107.616C453.373 103.861 449.362 101.984 444.071 101.984C438.781 101.984 434.727 103.861 431.911 107.616C429.181 111.371 427.815 116.576 427.815 123.232C427.815 129.888 429.181 135.136 431.911 138.976C434.727 142.731 438.781 144.608 444.071 144.608ZM531.755 90.592H549.291V149.216C549.291 159.797 546.518 167.477 540.971 172.256C535.425 177.035 527.531 179.424 517.291 179.424C508.075 179.424 500.822 177.419 495.531 173.408C490.326 169.397 487.211 164.363 486.187 158.304H504.107C505.643 163.68 510.038 166.368 517.291 166.368C522.411 166.368 526.081 165.045 528.299 162.4C530.603 159.755 531.755 155.445 531.755 149.472V143.84H531.499C529.707 146.315 527.233 148.448 524.075 150.24C521.003 151.947 517.206 152.8 512.683 152.8C507.222 152.8 502.358 151.52 498.091 148.96C493.91 146.315 490.625 142.56 488.235 137.696C485.931 132.832 484.779 127.157 484.779 120.672C484.779 114.272 485.931 108.64 488.235 103.776C490.625 98.912 493.91 95.1573 498.091 92.512C502.358 89.8667 507.222 88.544 512.683 88.544C517.121 88.544 520.875 89.44 523.947 91.232C527.105 92.9387 529.622 95.0293 531.499 97.504H531.755V90.592ZM517.163 139.36C521.771 139.36 525.27 137.781 527.659 134.624C530.134 131.381 531.371 126.731 531.371 120.672C531.371 114.699 530.134 110.133 527.659 106.976C525.27 103.733 521.771 102.112 517.163 102.112C512.385 102.112 508.801 103.776 506.411 107.104C504.022 110.347 502.827 114.869 502.827 120.672C502.827 126.475 504.022 131.04 506.411 134.368C508.801 137.696 512.385 139.36 517.163 139.36ZM600.763 88.544C607.163 88.544 612.326 90.5493 616.251 94.56C620.262 98.4853 622.267 104.075 622.267 111.328V156H604.603V116.704C604.603 112.011 603.665 108.555 601.787 106.336C599.995 104.117 597.179 103.008 593.339 103.008C588.817 103.008 585.275 104.245 582.715 106.72C580.241 109.109 579.003 112.651 579.003 117.344V156H561.467V90.592H579.003V99.552H579.259C581.222 96.3093 583.953 93.664 587.451 91.616C591.035 89.568 595.473 88.544 600.763 88.544ZM651.628 156H634.092V90.592H651.628V156ZM652.012 81.376H633.836V64.864H652.012V81.376ZM693.279 143.584C694.815 143.584 696.65 143.413 698.783 143.072V155.872C695.029 156.725 691.487 157.152 688.159 157.152C681.503 157.152 676.597 155.531 673.439 152.288C670.367 148.96 668.831 143.456 668.831 135.776V104.032H659.615V90.592H668.831V71.264H686.367V90.592H698.143V104.032H686.367V135.648C686.367 138.891 686.879 141.024 687.903 142.048C689.013 143.072 690.805 143.584 693.279 143.584ZM737.693 158.048C730.781 158.048 724.723 156.597 719.517 153.696C714.397 150.795 710.472 146.741 707.741 141.536C705.011 136.245 703.645 130.187 703.645 123.36C703.645 116.533 705.011 110.475 707.741 105.184C710.557 99.8933 714.525 95.7973 719.645 92.896C724.851 89.9093 730.952 88.416 737.949 88.416C744.861 88.416 750.877 89.8667 755.997 92.768C761.203 95.6693 765.171 99.7653 767.901 105.056C770.632 110.261 771.997 116.277 771.997 123.104C771.997 129.931 770.589 135.989 767.773 141.28C765.043 146.571 761.075 150.709 755.869 153.696C750.749 156.597 744.691 158.048 737.693 158.048ZM737.821 144.608C743.112 144.608 747.123 142.731 749.853 138.976C752.669 135.136 754.077 129.888 754.077 123.232C754.077 116.576 752.669 111.371 749.853 107.616C747.123 103.861 743.112 101.984 737.821 101.984C732.531 101.984 728.477 103.861 725.661 107.616C722.931 111.371 721.565 116.576 721.565 123.232C721.565 129.888 722.931 135.136 725.661 138.976C728.477 142.731 732.531 144.608 737.821 144.608ZM808.993 157.92C798.668 157.92 790.903 155.744 785.697 151.392C780.492 146.955 777.761 141.237 777.505 134.24H794.273C794.615 137.824 795.98 140.597 798.369 142.56C800.759 144.437 804.215 145.376 808.737 145.376C815.82 145.376 819.361 142.987 819.361 138.208C819.361 135.563 818.295 133.685 816.161 132.576C814.113 131.467 810.657 130.4 805.793 129.376L802.977 128.736C795.639 127.029 789.836 124.768 785.569 121.952C781.303 119.051 779.169 114.571 779.169 108.512C779.169 102.453 781.559 97.632 786.337 94.048C791.201 90.3787 797.9 88.544 806.433 88.544C815.735 88.544 822.775 90.592 827.553 94.688C832.332 98.784 834.935 103.947 835.361 110.176H818.593C818.167 107.36 817.057 105.184 815.265 103.648C813.559 102.027 810.743 101.216 806.817 101.216C803.575 101.216 801.143 101.771 799.521 102.88C797.985 103.989 797.217 105.525 797.217 107.488C797.217 109.621 797.985 111.115 799.521 111.968C801.143 112.821 804.129 113.717 808.481 114.656L811.937 115.424C817.228 116.704 821.623 118.069 825.121 119.52C828.705 120.885 831.649 122.976 833.953 125.792C836.257 128.608 837.409 132.363 837.409 137.056C837.409 143.712 834.935 148.875 829.985 152.544C825.121 156.128 818.124 157.92 808.993 157.92Z" fill="white"/>
</svg>
