<svg width="840" height="221" viewBox="0 0 840 221" fill="none" xmlns="http://www.w3.org/2000/svg">
<path d="M254.834 91.0179V66.3759C254.834 64.4884 253.287 62.9575 251.366 62.9575H140.019C138.113 62.9575 136.552 64.4884 136.552 66.3759V91.0179C136.552 92.9055 135.005 94.4363 133.084 94.4363H117.261C115.339 94.4363 113.793 92.9055 113.793 91.0179V66.3759C113.793 64.4884 112.247 62.9575 110.325 62.9575H3.55768C1.63611 62.9575 0.0898438 64.4884 0.0898438 66.3759V122.497C0.0898438 124.384 1.63611 125.915 3.55768 125.915H33.0268C34.9484 125.915 36.4947 127.446 36.4947 129.333V153.975C36.4947 155.863 38.0409 157.394 39.9625 157.394H151.309C153.23 157.394 154.777 155.863 154.777 153.975V129.333C154.777 127.446 156.323 125.915 158.244 125.915H174.067C175.989 125.915 177.535 127.446 177.535 129.333V153.975C177.535 155.863 179.081 157.394 181.003 157.394H287.801C289.722 157.394 291.268 155.863 291.268 153.975V97.8695C291.268 95.982 289.722 94.4512 287.801 94.4512H258.331C256.41 94.4512 254.864 92.9203 254.864 91.0328L254.834 91.0179Z" fill="white"/>
<path d="M413.973 156H390.933L364.565 117.216L353.173 130.016V156H333.461V64.48H353.173V106.336L389.909 64.48H411.285L376.341 103.904L413.973 156ZM443.764 158.048C436.852 158.048 430.793 156.597 425.588 153.696C420.468 150.795 416.542 146.741 413.812 141.536C411.081 136.245 409.716 130.187 409.716 123.36C409.716 116.533 411.081 110.475 413.812 105.184C416.628 99.8933 420.596 95.7973 425.716 92.896C430.921 89.9093 437.022 88.416 444.02 88.416C450.932 88.416 456.948 89.8667 462.068 92.768C467.273 95.6693 471.241 99.7653 473.972 105.056C476.702 110.261 478.068 116.277 478.068 123.104C478.068 129.931 476.66 135.989 473.844 141.28C471.113 146.571 467.145 150.709 461.94 153.696C456.82 156.597 450.761 158.048 443.764 158.048ZM443.892 144.608C449.182 144.608 453.193 142.731 455.924 138.976C458.74 135.136 460.148 129.888 460.148 123.232C460.148 116.576 458.74 111.371 455.924 107.616C453.193 103.861 449.182 101.984 443.892 101.984C438.601 101.984 434.548 103.861 431.732 107.616C429.001 111.371 427.636 116.576 427.636 123.232C427.636 129.888 429.001 135.136 431.732 138.976C434.548 142.731 438.601 144.608 443.892 144.608ZM531.576 90.592H549.112V149.216C549.112 159.797 546.338 167.477 540.792 172.256C535.245 177.035 527.352 179.424 517.112 179.424C507.896 179.424 500.642 177.419 495.352 173.408C490.146 169.397 487.032 164.363 486.008 158.304H503.928C505.464 163.68 509.858 166.368 517.112 166.368C522.232 166.368 525.901 165.045 528.12 162.4C530.424 159.755 531.576 155.445 531.576 149.472V143.84H531.32C529.528 146.315 527.053 148.448 523.896 150.24C520.824 151.947 517.026 152.8 512.504 152.8C507.042 152.8 502.178 151.52 497.912 148.96C493.73 146.315 490.445 142.56 488.056 137.696C485.752 132.832 484.6 127.157 484.6 120.672C484.6 114.272 485.752 108.64 488.056 103.776C490.445 98.912 493.73 95.1573 497.912 92.512C502.178 89.8667 507.042 88.544 512.504 88.544C516.941 88.544 520.696 89.44 523.768 91.232C526.925 92.9387 529.442 95.0293 531.32 97.504H531.576V90.592ZM516.984 139.36C521.592 139.36 525.09 137.781 527.48 134.624C529.954 131.381 531.192 126.731 531.192 120.672C531.192 114.699 529.954 110.133 527.48 106.976C525.09 103.733 521.592 102.112 516.984 102.112C512.205 102.112 508.621 103.776 506.232 107.104C503.842 110.347 502.648 114.869 502.648 120.672C502.648 126.475 503.842 131.04 506.232 134.368C508.621 137.696 512.205 139.36 516.984 139.36ZM600.584 88.544C606.984 88.544 612.146 90.5493 616.072 94.56C620.082 98.4853 622.088 104.075 622.088 111.328V156H604.424V116.704C604.424 112.011 603.485 108.555 601.608 106.336C599.816 104.117 597 103.008 593.16 103.008C588.637 103.008 585.096 104.245 582.536 106.72C580.061 109.109 578.824 112.651 578.824 117.344V156H561.288V90.592H578.824V99.552H579.08C581.042 96.3093 583.773 93.664 587.272 91.616C590.856 89.568 595.293 88.544 600.584 88.544ZM651.449 156H633.913V90.592H651.449V156ZM651.833 81.376H633.657V64.864H651.833V81.376ZM693.1 143.584C694.636 143.584 696.47 143.413 698.604 143.072V155.872C694.849 156.725 691.308 157.152 687.98 157.152C681.324 157.152 676.417 155.531 673.26 152.288C670.188 148.96 668.652 143.456 668.652 135.776V104.032H659.436V90.592H668.652V71.264H686.188V90.592H697.964V104.032H686.188V135.648C686.188 138.891 686.7 141.024 687.724 142.048C688.833 143.072 690.625 143.584 693.1 143.584ZM737.514 158.048C730.602 158.048 724.543 156.597 719.338 153.696C714.218 150.795 710.292 146.741 707.562 141.536C704.831 136.245 703.466 130.187 703.466 123.36C703.466 116.533 704.831 110.475 707.562 105.184C710.378 99.8933 714.346 95.7973 719.466 92.896C724.671 89.9093 730.772 88.416 737.77 88.416C744.682 88.416 750.698 89.8667 755.818 92.768C761.023 95.6693 764.991 99.7653 767.722 105.056C770.452 110.261 771.818 116.277 771.818 123.104C771.818 129.931 770.41 135.989 767.594 141.28C764.863 146.571 760.895 150.709 755.69 153.696C750.57 156.597 744.511 158.048 737.514 158.048ZM737.642 144.608C742.932 144.608 746.943 142.731 749.674 138.976C752.49 135.136 753.898 129.888 753.898 123.232C753.898 116.576 752.49 111.371 749.674 107.616C746.943 103.861 742.932 101.984 737.642 101.984C732.351 101.984 728.298 103.861 725.482 107.616C722.751 111.371 721.386 116.576 721.386 123.232C721.386 129.888 722.751 135.136 725.482 138.976C728.298 142.731 732.351 144.608 737.642 144.608ZM808.814 157.92C798.488 157.92 790.723 155.744 785.518 151.392C780.312 146.955 777.582 141.237 777.326 134.24H794.094C794.435 137.824 795.8 140.597 798.19 142.56C800.579 144.437 804.035 145.376 808.558 145.376C815.64 145.376 819.182 142.987 819.182 138.208C819.182 135.563 818.115 133.685 815.982 132.576C813.934 131.467 810.478 130.4 805.614 129.376L802.798 128.736C795.459 127.029 789.656 124.768 785.39 121.952C781.123 119.051 778.99 114.571 778.99 108.512C778.99 102.453 781.379 97.632 786.158 94.048C791.022 90.3787 797.72 88.544 806.254 88.544C815.555 88.544 822.595 90.592 827.374 94.688C832.152 98.784 834.755 103.947 835.182 110.176H818.414C817.987 107.36 816.878 105.184 815.086 103.648C813.379 102.027 810.563 101.216 806.638 101.216C803.395 101.216 800.963 101.771 799.342 102.88C797.806 103.989 797.038 105.525 797.038 107.488C797.038 109.621 797.806 111.115 799.342 111.968C800.963 112.821 803.95 113.717 808.302 114.656L811.758 115.424C817.048 116.704 821.443 118.069 824.942 119.52C828.526 120.885 831.47 122.976 833.774 125.792C836.078 128.608 837.23 132.363 837.23 137.056C837.23 143.712 834.755 148.875 829.806 152.544C824.942 156.128 817.944 157.92 808.814 157.92Z" fill="white"/>
</svg>
