<svg width="1150" height="139" viewBox="0 0 1150 139" fill="none" xmlns="http://www.w3.org/2000/svg">
<path fill-rule="evenodd" clip-rule="evenodd" d="M778.755 1.63355C774.963 3.95031 773.267 6.72557 773.267 10.6139C773.267 14.5929 775.234 18.248 778.341 20.0407C786.253 24.6077 797.105 21.3195 799.144 13.7372C800.428 8.95771 798.01 3.46244 793.727 1.42632C789.553 -0.55799 782.176 -0.456106 778.755 1.63355ZM49.9994 21.5138V32.7902H39.2237H28.4479V46.6061V60.422H14.224H0V71.6258V82.8297L14.0085 83.0671L28.0169 83.3046L28.254 97.3364L28.491 111.368H39.2237H49.9563L50.1934 97.3364L50.4304 83.3046L64.4389 83.0671L78.4473 82.8297V71.6258V60.422H64.2234H49.9994V46.6061V32.7902H77.4577C104.591 32.7902 104.95 32.8135 107.825 34.7537C112.206 37.7103 114.654 41.8819 114.654 46.3876C114.654 53.6073 110.355 59.1043 103.887 60.156L100.861 60.6482V71.8814V83.1146L105.778 82.606C117.097 81.436 128.508 72.8598 133.891 61.478C136.435 56.0993 136.636 55.0062 136.636 46.6061C136.636 38.206 136.435 37.1128 133.891 31.7341C130.076 23.6682 124.446 17.9217 116.504 13.9884L110.007 10.7711L80.0033 10.5042L49.9994 10.2374V21.5138ZM1047.42 59.7744C1032.09 86.9641 1019.39 109.5 1019.2 109.857C1019.01 110.214 1020 110.505 1021.4 110.505C1023.8 110.505 1024.43 109.638 1032.53 95.1777L1041.12 79.8506L1077.77 79.6253L1114.42 79.4007L1123.19 94.9523C1131.56 109.811 1132.07 110.505 1134.59 110.505H1137.23L1135.6 107.698C1134.71 106.154 1121.97 83.618 1107.3 57.6156C1081.06 11.1018 1080.59 10.3393 1077.96 10.3393C1075.34 10.3393 1074.86 11.107 1047.42 59.7744ZM1144.81 60.9107V111.483L1147.18 111.209L1149.56 110.936L1149.78 60.6379L1150 10.3393H1147.41H1144.81V60.9107ZM707.564 22.2124L707.319 31.4949L700.207 31.7453L693.095 31.9966V40.1644V48.3331H700.423H707.75V70.6302C707.75 96.7069 708.192 98.9408 714.626 105.386C723.996 114.77 742.051 116.28 757.55 108.974C760.049 107.797 762.257 106.566 762.458 106.241C762.954 105.436 758.655 91.5078 757.91 91.5087C757.585 91.5087 755.278 92.2858 752.783 93.2357C744.197 96.504 735.535 94.9842 731.518 89.5036C729.859 87.2421 729.713 85.6904 729.458 67.7004L729.183 48.3331H745.621H762.06V40.1489V31.9647L745.896 31.7298L729.733 31.4949L729.488 22.2124L729.243 12.9298H718.526H707.809L707.564 22.2124ZM1094.25 43.7997C1103.05 59.353 1110.5 72.7596 1110.81 73.5903C1111.35 75.0133 1109.41 75.1014 1077.64 75.1014H1043.89L1047.16 69.2314C1065.68 35.897 1077.24 15.5807 1077.7 15.5531C1078 15.5349 1085.45 28.2465 1094.25 43.7997ZM243.101 29.7066C231.818 32.1002 224.098 36.2295 217.496 43.4042C210.145 51.3924 207.403 59.973 207.952 73.2639C208.535 87.3881 213.121 96.7026 223.09 104.016C241.908 117.825 281.76 116.791 299.119 102.045L302.12 99.4951L296.602 93.5586C293.569 90.2937 290.777 87.4969 290.398 87.344C290.021 87.1912 288.049 88.2075 286.018 89.6012C283.986 90.9957 279.803 93.0638 276.721 94.1967C271.886 95.9747 269.581 96.257 259.911 96.257C246.846 96.257 241.999 94.9808 236.208 90.0157C232.439 86.7836 229.36 81.3721 229.327 77.9173L229.308 75.983L267.023 75.7585L304.738 75.5331L304.995 71.5749C305.343 66.2143 303.085 55.8567 300.348 50.2526C296.029 41.4096 286.829 34.3013 274.997 30.6634C268.521 28.6721 250.521 28.1325 243.101 29.7066ZM349.134 29.7066C330.768 33.6018 319.127 43.7125 315.078 59.2822C313.606 64.945 313.418 76.3241 314.704 81.9127C318.128 96.7924 329.831 107.655 347.065 111.953C355.962 114.171 376.577 113.929 385.599 111.5C393.118 109.475 403.106 104.555 406.034 101.434L407.96 99.3803L402.468 93.2935C399.449 89.9457 396.706 87.2033 396.375 87.199C396.043 87.1938 394.026 88.3699 391.893 89.8119C384.437 94.853 379.293 96.1405 366.375 96.2018C352.839 96.2657 348.121 95.0568 342.242 90.0157C338.472 86.7836 335.393 81.3721 335.36 77.9173L335.341 75.983L373.056 75.7585L410.771 75.5331L411.042 71.7329C411.457 65.9302 409.627 56.8592 406.861 50.9996C402.406 41.565 393.382 34.461 381.03 30.6634C374.554 28.6721 356.554 28.1325 349.134 29.7066ZM466.72 29.7558C459.394 31.3524 453.027 34.8056 448.132 39.8406L443.96 44.1304V38.029V31.9267H432.753H421.547V71.2157V110.505H432.703H443.86L444.126 86.5427L444.391 62.5807L446.761 58.543C451.354 50.7163 459.041 46.6061 469.087 46.6061C477.331 46.6061 482.231 49.289 485.646 55.6728C487.395 58.9428 487.509 60.4971 487.777 84.8157L488.06 110.505L498.984 110.504L509.908 110.502V88.2688V66.0347L512.327 61.1007C517.176 51.2085 526.164 46.0258 537.108 46.8099C546.609 47.4903 551.468 51.5781 553.377 60.4963C553.905 62.965 554.304 74.6351 554.304 87.6644V110.505H565.079H575.855L575.845 83.9522C575.834 55.931 575.47 52.5616 571.639 45.0561C565.453 32.9352 551.429 26.7146 535.985 29.2421C524.533 31.1167 515.656 36.5308 510.194 44.9732L507.447 49.2208L505.38 45.1071C501.218 36.8192 494.514 31.8222 484.791 29.7584C477.653 28.2439 473.661 28.243 466.72 29.7558ZM635.884 29.4692C629.091 30.7713 621.074 34.9118 615.951 39.7646L611.2 44.266V38.0963V31.9267H599.993H588.786V85.4633V139H599.993H611.2V118.59V98.1792L615.395 102.111C623.24 109.461 633.644 113.312 645.619 113.298C649.684 113.294 654.904 112.844 657.221 112.299C671.828 108.863 683.712 97.1145 686.987 82.8729C688.312 77.1082 688.108 64.0884 686.601 58.2935C681.081 37.0636 659.692 24.9082 635.884 29.4692ZM944.671 29.3561C923.72 32.8972 910.549 45.1623 907.693 63.7905C906.066 74.3968 908.329 86.6955 913.268 94.0974C918.772 102.345 928.639 108.822 940.506 111.977C948.96 114.225 969.66 113.97 978.731 111.507C986.405 109.423 994.777 105.502 998.92 102.052L1001.73 99.711L995.814 93.2451L989.897 86.7793L986.537 89.103C978.179 94.8849 968.796 97.1568 956.226 96.4401C946.179 95.8685 942.818 94.9462 937.372 91.2686C933.295 88.5149 930.058 83.6275 928.81 78.3395L928.25 75.9649H966.275H1004.3V69.67C1004.3 48.6431 991.608 33.835 970.045 29.7023C963.222 28.395 951.32 28.2327 944.671 29.3561ZM191.593 31.5338C182.969 33.86 175.906 38.3545 171.548 44.2893L168.964 47.8098V39.8682V31.9267H157.757H146.55V71.2157V110.505H157.757H168.964V96.3744C168.964 80.4283 169.741 74.9365 172.926 68.3938C177.703 58.5793 188.989 50.5384 199.515 49.4504L204.308 48.9548V39.5772V30.1997L200.213 30.2567C197.961 30.2878 194.082 30.8629 191.593 31.5338ZM775.853 71.2157V110.505H786.628H797.404V71.2157V31.9267H786.628H775.853V71.2157ZM808.611 32.3619C808.611 32.6019 817.34 50.282 828.009 71.6509L847.407 110.505H859.263H871.119L890.726 71.2157L910.331 31.9267L898.48 31.9483L886.627 31.969L873.265 60.4134C865.916 76.0581 859.71 88.8612 859.472 88.8664C859.235 88.8707 853.029 76.0746 845.68 60.4306L832.318 31.9863L820.464 31.9569C813.945 31.9405 808.611 32.1227 808.611 32.3619ZM268.665 47.0292C271.044 47.7373 274.544 49.4435 276.443 50.8217C280.421 53.7075 284.226 60.3641 282.519 61.4496C280.708 62.6023 230.17 62.3087 230.17 61.1456C230.17 60.5938 231.115 58.5266 232.271 56.5518C235.07 51.7681 241.094 47.8107 247.842 46.3229C252.013 45.4032 264.639 45.8315 268.665 47.0292ZM372.64 46.2995C377.898 47.1699 384.523 51.6929 387.413 56.3843C389.544 59.8469 389.768 60.6819 388.737 61.3364C388.054 61.7682 375.955 62.1282 361.849 62.136C340.892 62.1464 336.203 61.9357 336.203 60.9833C336.203 58.948 340.926 52.6816 344.008 50.63C347.002 48.6362 350.695 47.024 353.875 46.3229C356.598 45.7227 369.063 45.7072 372.64 46.2995ZM968.849 47.0862C973.738 48.5412 979.444 53.0754 981.572 57.1969C984.155 62.1991 984.416 62.149 955.64 62.149H929.342L930.241 59.7778C931.466 56.5509 934.981 52.0582 937.652 50.3053C944.474 45.8281 959.43 44.285 968.849 47.0862ZM651.775 48.8607C661.762 51.8276 668.108 62.1619 666.923 73.5255C665.526 86.9131 657.645 93.8125 642.686 94.7442C624.012 95.9073 612.029 86.7094 611.814 71.0464C611.678 61.1162 617.937 52.502 627.755 49.105C633.629 47.0732 645.357 46.9541 651.775 48.8607Z" fill="#A7A7A7"/>
</svg>
