<svg width="150" height="30" viewBox="0 0 150 30" fill="none" xmlns="http://www.w3.org/2000/svg">
<path d="M114.149 3.15039V26.6044H112.86V3.15039H114.149ZM122.493 3.15039V4.34242H104.516V3.15039H122.493Z" fill="white"/>
<path d="M99.7348 3.15039H101.04V19.0495C101.04 20.8 100.68 22.2605 99.9604 23.431C99.2516 24.6016 98.2797 25.4768 97.0447 26.0567C95.8205 26.6366 94.4513 26.9266 92.9371 26.9266C91.4014 26.9266 90.0214 26.6366 88.7972 26.0567C87.5729 25.4768 86.601 24.6016 85.8815 23.431C85.1727 22.2605 84.8184 20.8 84.8184 19.0495V3.15039H86.1231V19.0495C86.1231 20.4993 86.4185 21.7235 87.0091 22.7222C87.5998 23.7102 88.4106 24.462 89.4415 24.9774C90.4724 25.4822 91.6376 25.7345 92.9371 25.7345C94.2365 25.7345 95.3963 25.4822 96.4165 24.9774C97.4474 24.462 98.2582 23.7102 98.8489 22.7222C99.4395 21.7235 99.7348 20.4993 99.7348 19.0495V3.15039Z" fill="white"/>
<path d="M80.0689 13.3148V16.4398C80.0689 18.0077 79.8595 19.436 79.4407 20.7247C79.0326 22.0134 78.4366 23.1195 77.6526 24.043C76.8687 24.9666 75.929 25.6807 74.8336 26.1855C73.7383 26.6795 72.5033 26.9265 71.1287 26.9265C69.7863 26.9265 68.5621 26.6795 67.456 26.1855C66.3498 25.6807 65.3994 24.9666 64.6047 24.043C63.8208 23.1195 63.214 22.0134 62.7845 20.7247C62.3657 19.436 62.1562 18.0077 62.1562 16.4398V13.3148C62.1562 11.7361 62.3657 10.3078 62.7845 9.0299C63.214 7.74122 63.8208 6.6351 64.6047 5.71155C65.3887 4.78799 66.3284 4.07922 67.4237 3.58523C68.5299 3.08049 69.7541 2.82812 71.0965 2.82812C72.4711 2.82812 73.7061 3.08049 74.8014 3.58523C75.8968 4.07922 76.8365 4.78799 77.6204 5.71155C78.4151 6.6351 79.0219 7.74122 79.4407 9.0299C79.8595 10.3078 80.0689 11.7361 80.0689 13.3148ZM78.7802 16.4398V13.2826C78.7802 11.908 78.6084 10.6569 78.2648 9.52927C77.9211 8.39093 77.4164 7.41368 76.7506 6.59752C76.0955 5.78135 75.2954 5.15312 74.3504 4.71282C73.4054 4.26178 72.3207 4.03626 71.0965 4.03626C69.9044 4.03626 68.8359 4.26178 67.8909 4.71282C66.9458 5.15312 66.1458 5.78135 65.4907 6.59752C64.8356 7.41368 64.3363 8.39093 63.9926 9.52927C63.649 10.6569 63.4771 11.908 63.4771 13.2826V16.4398C63.4771 17.8252 63.649 19.087 63.9926 20.2253C64.347 21.3637 64.8517 22.3409 65.5068 23.1571C66.1619 23.9732 66.962 24.6068 67.907 25.0579C68.8628 25.4982 69.9367 25.7183 71.1287 25.7183C72.3529 25.7183 73.4376 25.4982 74.3826 25.0579C75.3276 24.6068 76.1277 23.9732 76.7828 23.1571C77.4379 22.3409 77.9319 21.3637 78.2648 20.2253C78.6084 19.087 78.7802 17.8252 78.7802 16.4398Z" fill="white"/>
<path d="M57.8417 3.15039V26.6044H53.7984L43.2796 9.80321V26.6044H39.2363V3.15039H43.2796L53.8306 19.9838V3.15039H57.8417Z" fill="white"/>
<path d="M36.1454 23.3988V26.6044H23.6935V23.3988H36.1454ZM24.8372 3.15039V26.6044H20.7939V3.15039H24.8372ZM34.5184 12.9444V16.1016H23.6935V12.9444H34.5184ZM36.0648 3.15039V6.37209H23.6935V3.15039H36.0648Z" fill="white"/>
<path d="M17.4938 23.3988V26.6044H1.20814V23.3988H17.4938ZM17.1233 5.64721L2.70623 26.6044H0V24.0431L14.4654 3.15039H17.1233V5.64721ZM15.6253 3.15039V6.37209H0.0966511V3.15039H15.6253Z" fill="white"/>
</svg>
